GRF
version=1
nRows=12
nColumns=46
inDegrees=no
endheader
time	plate1_ground_force_vx	plate1_ground_force_vy	plate1_ground_force_vz	plate1_ground_force_px	plate1_ground_force_py	plate1_ground_force_pz	plate1_ground_torque_x	plate1_ground_torque_y	plate1_ground_torque_z	plate2_ground_force_vx	plate2_ground_force_vy	plate2_ground_force_vz	plate2_ground_force_px	plate2_ground_force_py	plate2_ground_force_pz	plate2_ground_torque_x	plate2_ground_torque_y	plate2_ground_torque_z	plate3_ground_force_vx	plate3_ground_force_vy	plate3_ground_force_vz	plate3_ground_force_px	plate3_ground_force_py	plate3_ground_force_pz	plate3_ground_torque_x	plate3_ground_torque_y	plate3_ground_torque_z	plate4_ground_force_vx	plate4_ground_force_vy	plate4_ground_force_vz	plate4_ground_force_px	plate4_ground_force_py	plate4_ground_force_pz	plate4_ground_torque_x	plate4_ground_torque_y	plate4_ground_torque_z	plate5_ground_force_vx	plate5_ground_force_vy	plate5_ground_force_vz	plate5_ground_force_px	plate5_ground_force_py	plate5_ground_force_pz	plate5_ground_torque_x	plate5_ground_torque_y	plate5_ground_torque_z
      0.56000000	     45.72729210	    560.22084543	    -25.64845733	     -0.77793629	      0.00000000	      0.21246699	     -0.00000000	     -2.81101980	      0.00000000	      0.00000000	      0.00000000	      0.00000000	     -0.27022754	      0.00000000	      0.13397537	      0.00000000	      0.00000000	      0.00000000	      0.00000000	      0.00000000	      0.00000000	      0.00000000	      0.00000000	      0.00000000	      0.00000000	      0.00000000	      0.00000000	      0.00000000	      0.00000000	      0.00000000	      0.00000000	      0.00000000	      0.00000000	      0.00000000	      0.00000000	      0.00000000	      0.00000000	      0.00000000	      0.00000000	      0.00000000	      0.00000000	      0.00000000	      0.00000000	      0.00000000	      0.00000000
      0.57000000	     55.01275108	    580.15116166	    -27.29661732	     -0.77716486	      0.00000000	      0.21229456	     -0.00000000	     -2.98553343	      0.00000000	      0.00000000	      0.00000000	      0.00000000	     -0.27022754	      0.00000000	      0.13397537	      0.00000000	      0.00000000	      0.00000000	      0.00000000	      0.00000000	      0.00000000	      0.00000000	      0.00000000	      0.00000000	      0.00000000	      0.00000000	      0.00000000	      0.00000000	      0.00000000	      0.00000000	      0.00000000	      0.00000000	      0.00000000	      0.00000000	      0.00000000	      0.00000000	      0.00000000	      0.00000000	      0.00000000	      0.00000000	      0.00000000	      0.00000000	      0.00000000	      0.00000000	      0.00000000
      0.58000000	     64.59646725	    595.56264629	    -28.53858108	     -0.77642572	      0.00000000	      0.21207316	     -0.00000000	     -3.12619103	      0.00000000	      0.00000000	      0.00000000	      0.00000000	     -0.27022754	      0.00000000	      0.13397537	      0.00000000	      0.00000000	      0.00000000	      0.00000000	      0.00000000	      0.00000000	      0.00000000	      0.00000000	      0.00000000	      0.00000000	      0.00000000	      0.00000000	      0.00000000	      0.00000000	      0.00000000	      0.00000000	      0.00000000	      0.00000000	      0.00000000	      0.00000000	      0.00000000	      0.00000000	      0.00000000	      0.00000000	      0.00000000	      0.00000000	      0.00000000	      0.00000000	      0.00000000	      0.00000000
      0.59000000	     74.21382637	    605.51651404	    -29.28952348	     -0.77566761	      0.00000000	      0.21179512	     -0.00000000	     -3.22205737	      0.00000000	      0.00000000	      0.00000000	      0.00000000	     -0.27022754	      0.00000000	      0.13397537	      0.00000000	      0.00000000	      0.00000000	      0.00000000	      0.00000000	      0.00000000	      0.00000000	      0.00000000	      0.00000000	      0.00000000	      0.00000000	      0.00000000	      0.00000000	      0.00000000	      0.00000000	      0.00000000	      0.00000000	      0.00000000	      0.00000000	      0.00000000	      0.00000000	      0.00000000	      0.00000000	      0.00000000	      0.00000000	      0.00000000	      0.00000000	      0.00000000	      0.00000000	      0.00000000
      0.60000000	     83.57211427	    609.19828616	    -29.50295794	     -0.77486630	      0.00000000	      0.21146338	     -0.00000000	     -3.26549469	      0.00000000	      0.00000000	      0.00000000	      0.00000000	     -0.27022754	      0.00000000	      0.13397537	      0.00000000	      0.00000000	      0.00000000	      0.00000000	      0.00000000	      0.00000000	      0.00000000	      0.00000000	      0.00000000	      0.00000000	      0.00000000	      0.00000000	      0.00000000	      0.00000000	      0.00000000	      0.00000000	      0.00000000	      0.00000000	      0.00000000	      0.00000000	      0.00000000	      0.00000000	      0.00000000	      0.00000000	      0.00000000	      0.00000000	      0.00000000	      0.00000000	      0.00000000	      0.00000000
      0.61000000	     92.34313152	    605.88161849	    -29.16698517	     -0.77401890	      0.00000000	      0.21109210	     -0.00000000	     -3.25281985	      0.00000000	    -11.83599549	     67.30703067	     -1.93344544	     -0.26960451	      0.00000000	      0.13195123	      0.00000000	     -0.03736532	     -0.00000000	      0.00000000	      0.00000000	      0.00000000	      0.00000000	      0.00000000	      0.00000000	      0.00000000	      0.00000000	      0.00000000	      0.00000000	      0.00000000	      0.00000000	      0.00000000	      0.00000000	      0.00000000	      0.00000000	      0.00000000	      0.00000000	      0.00000000	      0.00000000	      0.00000000	      0.00000000	      0.00000000	      0.00000000	      0.00000000	      0.00000000	      0.00000000
      0.62000000	    100.14524437	    594.90012961	    -28.29455186	     -0.77313350	      0.00000000	      0.21070464	     -0.00000000	     -3.18404722	      0.00000000	    -18.04309391	     97.48699750	     -2.67510128	     -0.26778940	      0.00000000	      0.12977810	      0.00000000	     -0.04895934	     -0.00000000	      0.00000000	      0.00000000	      0.00000000	      0.00000000	      0.00000000	      0.00000000	      0.00000000	      0.00000000	      0.00000000	      0.00000000	      0.00000000	      0.00000000	      0.00000000	      0.00000000	      0.00000000	      0.00000000	      0.00000000	      0.00000000	      0.00000000	      0.00000000	      0.00000000	      0.00000000	      0.00000000	      0.00000000	      0.00000000	      0.00000000	      0.00000000
      0.63000000	    106.52452734	    575.65682028	    -26.91430540	     -0.77221489	      0.00000000	      0.21033010	     -0.00000000	     -3.06171353	      0.00000000	    -25.68965147	    131.99173712	     -3.30401738	     -0.26487528	      0.00000000	      0.12898981	      0.00000000	     -0.05790881	     -0.00000000	      0.00000000	      0.00000000	      0.00000000	      0.00000000	      0.00000000	      0.00000000	      0.00000000	      0.00000000	      0.00000000	      0.00000000	      0.00000000	      0.00000000	      0.00000000	      0.00000000	      0.00000000	      0.00000000	      0.00000000	      0.00000000	      0.00000000	      0.00000000	      0.00000000	      0.00000000	      0.00000000	      0.00000000	      0.00000000	      0.00000000	      0.00000000
      0.64000000	    110.95043582	    547.69752368	    -25.06702708	     -0.77124905	      0.00000000	      0.20999932	     -0.00000000	     -2.88922801	      0.00000000	    -34.39929918	    168.51752634	     -3.57835534	     -0.26094886	      0.00000000	      0.12922623	      0.00000000	     -0.06110189	      0.00000000	      0.00000000	      0.00000000	      0.00000000	      0.00000000	      0.00000000	      0.00000000	      0.00000000	      0.00000000	      0.00000000	      0.00000000	      0.00000000	      0.00000000	      0.00000000	      0.00000000	      0.00000000	      0.00000000	      0.00000000	      0.00000000	      0.00000000	      0.00000000	      0.00000000	      0.00000000	      0.00000000	      0.00000000	      0.00000000	      0.00000000	      0.00000000
      0.65000000	    112.84427381	    510.86043535	    -22.80857565	     -0.77019047	      0.00000000	      0.20974060	     -0.00000000	     -2.66966425	      0.00000000	    -43.66262028	    204.94220106	     -3.25541994	     -0.25630118	      0.00000000	      0.13000311	      0.00000000	     -0.05607981	      0.00000000	      0.00000000	      0.00000000	      0.00000000	      0.00000000	      0.00000000	      0.00000000	      0.00000000	      0.00000000	      0.00000000	      0.00000000	      0.00000000	      0.00000000	      0.00000000	      0.00000000	      0.00000000	      0.00000000	      0.00000000	      0.00000000	      0.00000000	      0.00000000	      0.00000000	      0.00000000	      0.00000000	      0.00000000	      0.00000000	      0.00000000	      0.00000000
      0.66000000	    111.65596825	    465.48685494	    -20.21628496	     -0.76895854	      0.00000000	      0.20957523	     -0.00000000	     -2.40596840	      0.00000000	    -52.98035432	    240.08617026	     -2.17363123	     -0.25129120	      0.00000000	      0.13087135	      0.00000000	     -0.04170997	      0.00000000	      0.00000000	      0.00000000	      0.00000000	      0.00000000	      0.00000000	      0.00000000	      0.00000000	      0.00000000	      0.00000000	      0.00000000	      0.00000000	      0.00000000	      0.00000000	      0.00000000	      0.00000000	      0.00000000	      0.00000000	      0.00000000	      0.00000000	      0.00000000	      0.00000000	      0.00000000	      0.00000000	      0.00000000	      0.00000000	      0.00000000	      0.00000000
      0.67000000	    106.99187801	    412.64197572	    -17.39381353	     -0.76744867	      0.00000000	      0.20951321	     -0.00000000	     -2.10288897	      0.00000000	    -61.96575847	    273.99124581	     -0.32035795	     -0.24621604	      0.00000000	      0.13153416	      0.00000000	     -0.01819042	      0.00000000	      0.00000000	      0.00000000	      0.00000000	      0.00000000	      0.00000000	      0.00000000	      0.00000000	      0.00000000	      0.00000000	      0.00000000	      0.00000000	      0.00000000	      0.00000000	      0.00000000	      0.00000000	      0.00000000	      0.00000000	      0.00000000	      0.00000000	      0.00000000	      0.00000000	      0.00000000	      0.00000000	      0.00000000	      0.00000000	      0.00000000	      0.00000000
